<svg width="490" height="352" viewBox="0 0 490 352" fill="none" xmlns="http://www.w3.org/2000/svg">
<rect width="455" height="278" rx="40" fill="#FAFF00"/>
<path d="M1 40C1 17.9086 18.9086 0 41 0H415C437.091 0 455 17.9086 455 40V45H1V40Z" fill="white"/>
<ellipse cx="46.5" cy="22" rx="7.5" ry="8" fill="#FAFF00"/>
<ellipse cx="70.5" cy="22" rx="7.5" ry="8" fill="#181816"/>
<circle cx="93" cy="22" r="8" fill="#D9D9D9"/>
<rect x="39" y="70" width="377" height="35" rx="17.5" fill="white"/>
<rect x="39" y="121" width="195" height="12" rx="6" fill="#EBEBEB"/>
<rect x="39" y="146" width="286" height="13" rx="6.5" fill="#EBEBEB"/>
<rect x="39" y="171" width="160" height="12" rx="6" fill="#EBEBEB"/>
<rect x="345" y="70" width="71" height="35" rx="17.5" fill="#1D1D1D"/>
<circle cx="379.5" cy="85.5" r="8.5" stroke="#FAFF00" stroke-width="4"/>
<g clip-path="url(#clip0_1460_2520)">
<path fill-rule="evenodd" clip-rule="evenodd" d="M489.566 256.338C489.348 254.398 487.086 252.941 485.13 252.941C478.807 252.941 473.196 249.228 470.843 243.486C468.439 237.605 469.989 230.746 474.702 226.423C476.185 225.067 476.365 222.797 475.121 221.22C471.885 217.111 468.206 213.398 464.19 210.181C462.617 208.919 460.31 209.094 458.946 210.604C454.833 215.159 447.446 216.852 441.737 214.47C435.796 211.971 432.05 205.951 432.417 199.49C432.537 197.46 431.054 195.695 429.03 195.459C423.876 194.863 418.677 194.845 413.507 195.418C411.507 195.639 410.024 197.362 410.091 199.366C410.316 205.765 406.524 211.679 400.643 214.088C395.002 216.392 387.666 214.714 383.562 210.199C382.205 208.712 379.935 208.53 378.355 209.761C374.219 213.006 370.458 216.721 367.192 220.797C365.918 222.382 366.106 224.678 367.604 226.042C372.406 230.391 373.957 237.309 371.462 243.258C369.08 248.93 363.191 252.585 356.449 252.585C354.261 252.515 352.702 253.983 352.463 255.972C351.856 261.156 351.849 266.438 352.433 271.664C352.65 273.612 354.981 275.057 356.958 275.057C362.967 274.903 368.735 278.623 371.155 284.512C373.567 290.394 372.017 297.248 367.297 301.575C365.821 302.931 365.633 305.197 366.878 306.774C370.084 310.857 373.763 314.573 377.793 317.817C379.374 319.091 381.674 318.912 383.045 317.401C387.173 312.835 394.56 311.146 400.246 313.532C406.202 316.023 409.948 322.043 409.581 328.508C409.462 330.539 410.952 332.307 412.968 332.539C415.604 332.846 418.257 333 420.917 333C423.441 333 425.966 332.861 428.491 332.58C430.492 332.36 431.974 330.636 431.907 328.629C431.676 322.234 435.474 316.32 441.348 313.915C447.026 311.595 454.331 313.293 458.436 317.803C459.8 319.286 462.054 319.466 463.644 318.238C467.771 315.001 471.525 311.289 474.806 307.202C476.08 305.621 475.9 303.32 474.394 301.958C469.592 297.609 468.033 290.689 470.528 284.744C472.874 279.148 478.544 275.391 484.644 275.391L485.497 275.413C487.475 275.574 489.296 274.05 489.535 272.03C490.143 266.842 490.15 261.564 489.566 256.338ZM421.109 287.161C408.417 287.161 398.094 276.838 398.094 264.146C398.094 251.455 408.417 241.131 421.109 241.131C433.8 241.131 444.124 251.455 444.124 264.146C444.124 276.838 433.8 287.161 421.109 287.161Z" fill="#C4C4C4"/>
</g>
<g clip-path="url(#clip1_1460_2520)">
<path fill-rule="evenodd" clip-rule="evenodd" d="M358.805 317.002C358.707 316.117 357.691 315.451 356.813 315.451C353.972 315.451 351.451 313.756 350.393 311.135C349.313 308.45 350.01 305.319 352.127 303.345C352.794 302.726 352.874 301.69 352.316 300.97C350.862 299.094 349.209 297.399 347.404 295.93C346.698 295.354 345.661 295.434 345.049 296.124C343.201 298.203 339.882 298.976 337.317 297.889C334.648 296.748 332.965 294 333.129 291.05C333.184 290.123 332.517 289.317 331.608 289.21C329.293 288.938 326.957 288.929 324.634 289.191C323.735 289.292 323.069 290.078 323.099 290.993C323.2 293.914 321.497 296.614 318.854 297.714C316.32 298.766 313.024 298 311.18 295.939C310.571 295.26 309.551 295.177 308.841 295.739C306.983 297.22 305.293 298.916 303.826 300.777C303.254 301.5 303.338 302.549 304.011 303.171C306.168 305.157 306.865 308.315 305.744 311.031C304.674 313.62 302.028 315.289 298.999 315.289C298.016 315.257 297.316 315.927 297.208 316.835C296.936 319.202 296.933 321.613 297.195 323.999C297.292 324.888 298.339 325.548 299.228 325.548C301.927 325.478 304.519 327.176 305.606 329.864C306.69 332.549 305.993 335.679 303.873 337.654C303.21 338.273 303.125 339.307 303.684 340.027C305.125 341.891 306.778 343.588 308.589 345.069C309.299 345.65 310.332 345.568 310.948 344.879C312.803 342.794 316.122 342.023 318.676 343.112C321.352 344.25 323.035 346.998 322.87 349.949C322.816 350.876 323.486 351.684 324.392 351.789C325.576 351.93 326.768 352 327.963 352C329.097 352 330.232 351.937 331.366 351.808C332.265 351.708 332.931 350.921 332.901 350.004C332.797 347.085 334.503 344.385 337.142 343.287C339.693 342.228 342.975 343.003 344.819 345.062C345.432 345.739 346.445 345.821 347.159 345.261C349.014 343.783 350.7 342.088 352.174 340.222C352.746 339.501 352.665 338.451 351.989 337.828C349.831 335.843 349.131 332.684 350.252 329.97C351.306 327.415 353.854 325.7 356.594 325.7L356.977 325.71C357.866 325.784 358.684 325.088 358.792 324.166C359.065 321.797 359.068 319.388 358.805 317.002ZM328.049 331.074C322.347 331.074 317.709 326.361 317.709 320.567C317.709 314.773 322.347 310.06 328.049 310.06C333.751 310.06 338.389 314.773 338.389 320.567C338.389 326.361 333.751 331.074 328.049 331.074Z" fill="white"/>
</g>
<path d="M386 92L393 98" stroke="#FAFF00" stroke-width="4" stroke-linecap="round"/>
<defs>
<clipPath id="clip0_1460_2520">
<rect width="138" height="138" fill="white" transform="translate(352 195)"/>
</clipPath>
<clipPath id="clip1_1460_2520">
<rect width="62" height="63" fill="white" transform="translate(297 289)"/>
</clipPath>
</defs>
</svg>
